<?xml version="1.0" standalone="no"?>
<!DOCTYPE svg PUBLIC "-//W3C//DTD SVG 20010904//EN"
 "http://www.w3.org/TR/2001/REC-SVG-20010904/DTD/svg10.dtd">
<svg version="1.0" xmlns="http://www.w3.org/2000/svg"
 width="700.000000pt" height="700.000000pt" viewBox="0 0 700.000000 700.000000"
 preserveAspectRatio="xMidYMid meet">
<metadata>
Created by potrace 1.14, written by Peter Selinger 2001-2017
</metadata>
<g transform="translate(0.000000,700.000000) scale(0.100000,-0.100000)"
fill="#000000" stroke="none">
<path d="M6755 6981 c-712 -131 -1234 -496 -1488 -1041 -57 -121 -110 -288
-138 -426 l-21 -109 -326 -327 c-179 -180 -327 -326 -329 -324 -2 1 6 56 17
121 106 620 -97 1204 -581 1670 -108 104 -223 198 -342 279 -78 53 -121 59
-175 26 -39 -24 -52 -52 -87 -188 -49 -195 -67 -326 -72 -538 -7 -263 10 -415
73 -632 112 -388 381 -742 757 -996 48 -33 87 -62 87 -65 0 -3 -234 -240 -521
-526 -347 -347 -518 -512 -515 -495 46 204 60 353 53 559 -3 91 -13 207 -22
256 -76 422 -281 801 -615 1135 -167 167 -448 383 -514 395 -45 9 -101 -16
-125 -55 -25 -42 -78 -241 -108 -410 -34 -187 -43 -558 -19 -735 54 -385 190
-706 423 -995 125 -155 355 -356 533 -466 l61 -38 -562 -562 c-310 -310 -564
-562 -565 -561 -1 1 6 40 17 87 56 257 71 589 35 819 -60 394 -220 749 -484
1081 -168 210 -411 433 -643 590 -104 70 -125 80 -164 80 -70 0 -99 -32 -135
-148 -144 -469 -168 -991 -65 -1427 131 -553 468 -1017 985 -1357 l110 -72
-624 -626 c-647 -647 -665 -667 -666 -746 0 -68 45 -149 103 -185 43 -25 105
-33 158 -19 40 10 103 71 681 648 351 350 639 634 641 632 3 -3 41 -59 85
-125 141 -211 272 -362 442 -509 596 -512 1391 -652 2289 -405 142 40 181 70
181 140 0 53 -10 73 -105 209 -436 621 -1034 1011 -1678 1095 -227 29 -529 15
-765 -36 -51 -11 -95 -19 -98 -17 -2 2 248 255 556 563 308 308 561 557 562
555 2 -3 26 -39 52 -80 171 -262 423 -515 658 -658 492 -301 1105 -371 1758
-201 133 34 176 54 204 92 36 49 28 94 -35 188 -254 380 -580 675 -951 859
-404 200 -864 250 -1326 144 -19 -5 119 140 492 514 l519 521 45 -67 c287
-430 683 -705 1153 -801 160 -33 301 -44 479 -38 189 7 322 25 500 68 158 39
204 59 224 98 34 65 18 112 -87 254 -364 492 -839 793 -1350 857 -121 15 -442
7 -542 -13 -38 -8 -71 -14 -71 -13 -1 0 138 143 310 317 l311 316 130 26 c259
52 513 158 705 295 394 280 659 751 756 1345 15 92 15 106 1 139 -31 73 -83
86 -232 59z"/>
</g>
</svg>
